<svg xmlns="http://www.w3.org/2000/svg"
     xmlns:xlink="http://www.w3.org/1999/xlink"
     version="1.1"
     x="0px"
     y="0px"
     viewBox="-2 4 100 125"
     width="30px" fill="#333">
    <path d="M48,6c-11.028,0-20,8.972-20,20v48h0.008c0,0.776,0.217,1.55,0.664,2.219l16,24C45.414,101.332,46.663,102,48,102  s2.586-0.668,3.328-1.781l16-24c0.446-0.669,0.664-1.442,0.664-2.219H68V26C68,14.972,59.027,6,48,6z M36,38h8v32h-8V38z M52,38h8  v32h-8V38z M48,14c6.617,0,12,5.383,12,12v4H36v-4C36,19.383,41.383,14,48,14z M51.192,86h-6.385l-5.333-8h17.053L51.192,86z"/>
</svg>